{"title":"The Left Handed Gun(1958)MPEG-4[DaScubaDude]","uid":15342699,"size":998383960,"categoryP":"video","categoryS":"movies","magnet":"?xt=urn:btih:09e3a8dc7e52bee164d5d1fd58410aef6a9e8fa8&amp;dn=The+Left+Handed+Gun%281958%29MPEG-4%5BDaScubaDude%5D&amp;tr=udp%3A%2F%2Ftracker.leechers-paradise.org%3A6969&amp;tr=udp%3A%2F%2Fzer0day.ch%3A1337&amp;tr=udp%3A%2F%2Fopen.demonii.com%3A1337&amp;tr=udp%3A%2F%2Ftracker.coppersurfer.tk%3A6969&amp;tr=udp%3A%2F%2Fexodus.desync.com%3A6969","seeders":1,"leechers":0,"uploader":"dascuba","files":1,"time":1468861253,"description":"The Left Handed Gun (1958)\r\nApproved | 1h 42min | Western | 6 June 1958 (Japan)\r\nAfter his employer is murdered by rival cattlemen, a troubled and uneducated young cowboy vows revenge on the murderers,\r\nDirector: Arthur Penn\r\nWriters: Leslie Stevens (screenplay), Gore Vidal (play)\r\nStars: Paul Newman, Lita Milan, John Dehner \r\n\r\nGeneral\r\nComplete name                            : The Left Handed GunLEFT_HANDED_GUN_Title1.mp4\r\nFormat                                   : MPEG-4\r\nFormat profile                           : Base Media\r\nCodec ID                                 : isom (isom/iso2/avc1/mp41)\r\nFile size                                : 952 MiB\r\nDuration                                 : 1h 42mn\r\nOverall bit rate mode                    : Variable\r\nOverall bit rate                         : 1 302 Kbps\r\nMovie name                               : LEFT_HANDED_GUN_Title1\r\nWriting application                      : Lavf54.6.100\r\n\r\nVideo\r\nID                                       : 1\r\nFormat                                   : AVC\r\nFormat/Info                              : Advanced Video Codec\r\nFormat profile                           :   \r\nFormat settings, CABAC                   : No\r\nFormat settings, ReFrames                : 6 frames\r\nFormat settings, GOP                     : M=1, N=60\r\nCodec ID                                 : avc1\r\nCodec ID/Info                            : Advanced Video Coding\r\nDuration                                 : 1h 42mn\r\nBit rate                                 : 1 189 Kbps\r\nWidth                                    : 720 pixels\r\nHeight                                   : 404 pixels\r\nDisplay aspect ratio                     : 16:9\r\nFrame rate mode                          : Constant\r\nFrame rate                               : 29.970 (30000/1001) fps\r\nColor space                              : YUV\r\nChroma subsampling                       : 4:2:0\r\nBit depth                                : 8 bits\r\nScan type                                : Progressive\r\nBits/(Pixel*Frame)                       : 0.136\r\nStream size                              : 870 MiB (91%)\r\n\r\nAudio\r\nID                                       : 2\r\nFormat                                   : AAC\r\nFormat/Info                              : Advanced Audio Codec\r\nFormat profile                           : LC\r\nCodec ID                                 : 40\r\nDuration                                 : 1h 42mn\r\nBit rate mode                            : Variable\r\nBit rate                                 : 106 Kbps\r\nMaximum bit rate                         : 114 Kbps\r\nChannel(s)                               : 2 channels\r\nChannel(s)_Original                      : 1 channel\r\nChannel positions                        : Front: C\r\nSampling rate                            : 44.1 KHz\r\nFrame rate                               : 43.066 fps (1024 spf)\r\nCompression mode                         : Lossy\r\nStream size                              : 77.5 MiB (8%)\r\nDefault                                  : Yes\r\nAlternate group                          : 1","torrent":{"xt":"urn:btih:09e3a8dc7e52bee164d5d1fd58410aef6a9e8fa8","amp;dn":"The+Left+Handed+Gun%281958%29MPEG-4%5BDaScubaDude%5D","amp;tr":["udp%3A%2F%2Ftracker.leechers-paradise.org%3A6969","udp%3A%2F%2Fzer0day.ch%3A1337","udp%3A%2F%2Fopen.demonii.com%3A1337","udp%3A%2F%2Ftracker.coppersurfer.tk%3A6969","udp%3A%2F%2Fexodus.desync.com%3A6969"],"infoHash":"09e3a8dc7e52bee164d5d1fd58410aef6a9e8fa8","infoHashBuffer":{"type":"Buffer","data":[9,227,168,220,126,82,190,225,100,213,209,253,88,65,10,239,106,158,143,168]},"announce":[],"urlList":[]}}